<svg xmlns="http://www.w3.org/2000/svg" width="35.798" height="35.798" viewBox="0 0 35.798 35.798">
  <path id="instagram-svgrepo-com_11_" data-name="instagram-svgrepo-com (11)" d="M15.527,5A10.567,10.567,0,0,0,5,15.527V30.273A10.567,10.567,0,0,0,15.527,40.8H30.273A10.567,10.567,0,0,0,40.8,30.273V15.527A10.567,10.567,0,0,0,30.273,5Zm0,3.254H30.273a7.262,7.262,0,0,1,7.271,7.271V30.273a7.262,7.262,0,0,1-7.271,7.271H15.527a7.262,7.262,0,0,1-7.271-7.271V15.527a7.262,7.262,0,0,1,7.271-7.272Zm16.983,3.56a1.468,1.468,0,1,0,1.044.43,1.474,1.474,0,0,0-1.044-.43Zm-9.616,1.322a9.764,9.764,0,1,0,9.768,9.758,9.764,9.764,0,0,0-9.768-9.758Zm0,3.254a6.481,6.481,0,1,1-4.607,1.9,6.508,6.508,0,0,1,4.607-1.9Z" transform="translate(-5 -5)" fill="#d5d5d5"/>
</svg>
