<svg xmlns="http://www.w3.org/2000/svg" width="39.854" height="35.8" viewBox="0 0 39.854 35.8">
  <path id="telegram-svgrepo-com_3_" data-name="telegram-svgrepo-com (3)" d="M38.905,4a4.56,4.56,0,0,0-1.432.342h-.006c-.437.174-2.516,1.048-5.672,2.371L20.476,11.477c-8.121,3.42-16.1,6.786-16.1,6.786l.1-.036A4.917,4.917,0,0,0,3.34,18.8a3.107,3.107,0,0,0-.9.869,2.552,2.552,0,0,0-.429,1.7,3.086,3.086,0,0,0,1.372,2.143A4.555,4.555,0,0,0,4.4,24.06h.012L11.9,26.581c.335,1.078,2.282,7.475,2.75,8.948a5.488,5.488,0,0,0,.881,1.851,2.166,2.166,0,0,0,.581.536,1.714,1.714,0,0,0,.282.132.258.258,0,0,0,.1.03l-.078-.018a.545.545,0,0,1,.06.03,1.19,1.19,0,0,0,.18.035,2.536,2.536,0,0,0,2.143-.377l.054-.042,4.419-4.025,7.408,5.679.168.072a3.935,3.935,0,0,0,3.935-.365,4.01,4.01,0,0,0,1.156-1.528l.054-.137L41.715,8.072a4.215,4.215,0,0,0,.024-2.061A2.771,2.771,0,0,0,40.54,4.4,2.87,2.87,0,0,0,38.905,4Zm-.152,3.142a.9.9,0,0,1-.03.27v.017L33.048,36.452a.652.652,0,0,1-.18.222c-.12.1-.214.155-.713-.042l-9.062-6.948-5.474,4.989,1.15-7.343L33.575,13.537c.611-.569.407-.689.407-.689.042-.694-.923-.2-.923-.2L14.391,24.2l-.006-.03L5.437,21.162v-.006c-.006,0-.018-.006-.024-.006a.413.413,0,0,0,.048-.018l.048-.024.048-.018L21.67,14.3c4.072-1.714,8.163-3.437,11.314-4.767s5.48-2.294,5.612-2.348S38.66,7.142,38.753,7.142Z" transform="translate(-2 -3.996)" fill="#d5d5d5"/>
</svg>
