<svg xmlns="http://www.w3.org/2000/svg" width="42.575" height="35.534" viewBox="0 0 42.575 35.534">
  <path id="twitter-svgrepo-com_3_" data-name="twitter-svgrepo-com (3)" d="M41.075,3.018A37.093,37.093,0,0,1,35.355,5.8a8.161,8.161,0,0,0-14.318,5.465v1.822A19.417,19.417,0,0,1,11.8,11.024,19.418,19.418,0,0,1,4.643,4.84s-7.286,16.394,9.108,23.68A21.2,21.2,0,0,1,1,32.162c16.394,9.108,36.431,0,36.431-20.947A8.194,8.194,0,0,0,37.286,9.7C39.146,7.87,41.075,3.018,41.075,3.018Z" transform="translate(0.25 -1.615)" fill="none" stroke="#d5d5d5" stroke-linecap="round" stroke-linejoin="round" stroke-width="2.5"/>
</svg>
