<svg xmlns="http://www.w3.org/2000/svg" width="35.235" height="31.17" viewBox="0 0 35.235 31.17">
  <g id="noun-comment-4659783" transform="translate(0.502 0.5)">
    <path id="Path_31" data-name="Path 31" d="M226.968,144.42h-27.7A3.271,3.271,0,0,0,196,147.688v16.806a3.271,3.271,0,0,0,3.268,3.268h15.29v5.4a1.4,1.4,0,0,0,2.39.994l6.388-6.388h3.631a3.271,3.271,0,0,0,3.268-3.268V147.688a3.272,3.272,0,0,0-3.268-3.268Zm1.711,20.073a1.713,1.713,0,0,1-1.711,1.711h-3.953a.778.778,0,0,0-.55.228l-6.35,6.349v-5.8a.781.781,0,0,0-.781-.778H199.269a1.713,1.713,0,0,1-1.711-1.711v-16.8a1.713,1.713,0,0,1,1.711-1.711h27.7a1.713,1.713,0,0,1,1.711,1.711Z" transform="translate(-196.002 -144.42)" fill="#b7b7b7" stroke="#b7b7b7" stroke-width="1"/>
  </g>
</svg>
