<svg xmlns="http://www.w3.org/2000/svg" width="99.083" height="90.479" viewBox="0 0 99.083 90.479">
  <g id="noun-newspaper-1447906" transform="translate(-79.29 -33.912)">
    <path id="Path_1" data-name="Path 1" d="M176.343,70.645C170.9,61.19,165.552,51.736,160,42.487a16.445,16.445,0,0,0-14.9-8.53c-10.791-.1-21.684,0-32.474,0a13.816,13.816,0,0,0-4.933.822,17.047,17.047,0,0,0-9.866,7.81L81.8,70.336a17.866,17.866,0,0,0-2.467,7.81,15.975,15.975,0,0,0,2.158,9.66c5.447,9.352,10.893,18.7,16.237,27.952a15.631,15.631,0,0,0,6.063,6.063,16.073,16.073,0,0,0,8.016,2.569H145a16.575,16.575,0,0,0,4.522-.616c4.316-1.439,7.913-3.8,10.174-7.913,5.447-9.352,10.791-18.7,16.237-27.952a17.664,17.664,0,0,0,2.363-8.118,14.681,14.681,0,0,0-1.953-9.145ZM156.3,95.514a2.108,2.108,0,0,1-1.336,1.953L129.79,107.949h-.205a4.476,4.476,0,0,0-.514.1.772.772,0,0,1-.514-.1h-.205L103.174,97.467a2.108,2.108,0,0,1-1.336-1.953V52.147a2.018,2.018,0,0,1,.925-1.747,2.1,2.1,0,0,1,2.055-.206l24.356,10.174,24.356-10.174a2.119,2.119,0,0,1,2.055.206,2.019,2.019,0,0,1,.925,1.747V95.514Zm-25.178,7.3,20.861-8.735V55.332l-20.861,8.735Zm3.7-33.3,11.818-4.933a2.119,2.119,0,1,1,1.644,3.905L136.47,73.419a2.426,2.426,0,0,1-.822.206,2.108,2.108,0,0,1-1.953-1.336,2,2,0,0,1,1.13-2.775Zm0,6.679,11.818-4.933a2.119,2.119,0,1,1,1.644,3.905L136.47,80.1a2.426,2.426,0,0,1-.822.206,2.108,2.108,0,0,1-1.953-1.336,2.033,2.033,0,0,1,1.13-2.775Zm0,6.679,11.818-4.933a2.119,2.119,0,1,1,1.644,3.905L136.47,86.778a2.425,2.425,0,0,1-.822.206,2.108,2.108,0,0,1-1.953-1.336,2.063,2.063,0,0,1,1.13-2.775Zm0,6.783,11.818-4.933a2.119,2.119,0,1,1,1.644,3.905L136.47,93.561a2.425,2.425,0,0,1-.822.206,2.108,2.108,0,0,1-1.953-1.336,2,2,0,0,1,1.13-2.775Zm-28.877,4.419,20.861,8.735V64.068l-20.861-8.735Zm2.569-28.363a2.033,2.033,0,0,1,2.775-1.13l11.818,4.933a2.033,2.033,0,0,1,1.13,2.775,2.108,2.108,0,0,1-1.953,1.336,2.409,2.409,0,0,1-.822-.206l-11.818-4.933a2,2,0,0,1-1.13-2.775Zm0,6.68a2.033,2.033,0,0,1,2.775-1.13l11.818,4.933a2.033,2.033,0,0,1,1.13,2.775,2.108,2.108,0,0,1-1.953,1.336,2.409,2.409,0,0,1-.822-.206l-11.818-4.933a2,2,0,0,1-1.13-2.775Zm0,6.782a2.033,2.033,0,0,1,2.775-1.13l11.818,4.933a2.033,2.033,0,0,1,1.13,2.775,2.108,2.108,0,0,1-1.953,1.336,2.409,2.409,0,0,1-.822-.206l-11.818-4.933a2.034,2.034,0,0,1-1.13-2.775Zm0,6.68a2.033,2.033,0,0,1,2.775-1.13l11.818,4.933a2.033,2.033,0,0,1,1.13,2.775,2.108,2.108,0,0,1-1.953,1.336,2.409,2.409,0,0,1-.822-.206l-11.818-4.933a2,2,0,0,1-1.13-2.775Z" transform="translate(0 0)" fill="#7a08fa"/>
  </g>
</svg>
