<svg xmlns="http://www.w3.org/2000/svg" width="33.177" height="26.125" viewBox="0 0 33.177 26.125">
  <g id="noun-news-3323982" transform="translate(-81.17 -126.571)">
    <path id="Path_38" data-name="Path 38" d="M188.276,130.295v18.671h0a3.724,3.724,0,0,1-3.724,3.724h-14.64A15.985,15.985,0,0,0,155.1,137.868v-7.574a3.724,3.724,0,0,1,3.724-3.724h25.723a3.724,3.724,0,0,1,3.724,3.724Zm-28.681,17.229a8.511,8.511,0,0,0-4.495-2.062v3.11a5.353,5.353,0,0,1,4.11,4.125h3.11a8.344,8.344,0,0,0-2.727-5.166Zm-4.495-7.416V143.2a10.664,10.664,0,0,1,9.472,9.494h3.094A13.741,13.741,0,0,0,155.1,140.109Z" transform="translate(-73.928 0)" fill="#7a08fa"/>
  </g>
</svg>
