<svg xmlns="http://www.w3.org/2000/svg" width="33.177" height="31.733" viewBox="0 0 33.177 31.733">
  <path id="star-svgrepo-com_1_" data-name="star-svgrepo-com (1)" d="M18.192,2.043l3.742,7.583a1.786,1.786,0,0,0,1.346.977l8.368,1.216a1.786,1.786,0,0,1,.99,3.048l-6.055,5.9a1.787,1.787,0,0,0-.514,1.586L27.5,30.69a1.787,1.787,0,0,1-2.593,1.884L17.422,28.64a1.788,1.788,0,0,0-1.664,0L8.274,32.569a1.787,1.787,0,0,1-2.593-1.884l1.43-8.329a1.787,1.787,0,0,0-.51-1.587l-6.059-5.9a1.786,1.786,0,0,1,.99-3.048L9.9,10.6a1.786,1.786,0,0,0,1.346-.978l3.742-7.583a1.786,1.786,0,0,1,3.2,0Z" transform="translate(-0.002 -1.047)" fill="#7a08fa"/>
</svg>
