<svg xmlns="http://www.w3.org/2000/svg" width="42.616" height="42.616" viewBox="0 0 42.616 42.616">
  <g id="noun-history-4913145_1_" data-name="noun-history-4913145 (1)" transform="translate(-105 -35)">
    <path id="Path_7" data-name="Path 7" d="M109.566,35A4.566,4.566,0,0,0,105,39.566V73.05a4.566,4.566,0,0,0,4.566,4.566h24.352a4.566,4.566,0,0,0,4.566-4.566v-7.7a12.356,12.356,0,0,1-3.044,0v7.7a1.522,1.522,0,0,1-1.522,1.522H109.566a1.522,1.522,0,0,1-1.522-1.522V47.176h18.371a12.171,12.171,0,0,1,10.547-6.088,12.3,12.3,0,0,1,1.522.094V39.566A4.566,4.566,0,0,0,133.918,35Zm0,7.61a1.522,1.522,0,1,0-1.522-1.522A1.522,1.522,0,0,0,109.566,42.61Zm3.044-1.522a1.522,1.522,0,0,1,1.522-1.522H118.7a1.522,1.522,0,0,1,0,3.044h-4.566A1.522,1.522,0,0,1,112.61,41.088Z" fill="#404040" fill-rule="evenodd"/>
    <path id="Path_8" data-name="Path 8" d="M195.864,367.947q-.44-.2-.86-.431a1.53,1.53,0,0,0-.216-.015H176.523a1.522,1.522,0,1,0,0,3.044h18.264a1.522,1.522,0,0,0,1.077-2.6Z" transform="translate(-63.913 -303.583)" fill="#404040"/>
    <path id="Path_9" data-name="Path 9" d="M192.822,318.044A12.228,12.228,0,0,1,190.329,315H176.524a1.522,1.522,0,1,0,0,3.044Z" transform="translate(-63.914 -255.648)" fill="#404040"/>
    <path id="Path_10" data-name="Path 10" d="M189.589,265.544a12.1,12.1,0,0,1-.791-3.044h-12.27a1.522,1.522,0,1,0,0,3.044Z" transform="translate(-63.918 -207.714)" fill="#404040"/>
    <path id="Path_11" data-name="Path 11" d="M176.522,210a1.522,1.522,0,0,0,0,3.044h1.522a1.522,1.522,0,1,0,0-3.044Z" transform="translate(-63.912 -159.78)" fill="#404040"/>
    <path id="Path_12" data-name="Path 12" d="M176.522,420a1.522,1.522,0,0,0,0,3.044h18.264a1.522,1.522,0,0,0,0-3.044Z" transform="translate(-63.912 -351.516)" fill="#404040"/>
    <path id="Path_13" data-name="Path 13" d="M246.522,210a1.522,1.522,0,1,0,0,3.044h1.522a1.522,1.522,0,0,0,0-3.044Z" transform="translate(-127.824 -159.78)" fill="#404040"/>
    <path id="Path_14" data-name="Path 14" d="M360.654,122.5a10.654,10.654,0,1,0,10.654,10.654A10.654,10.654,0,0,0,360.654,122.5Zm0,5.327a1.522,1.522,0,0,1,1.522,1.522v2.775l2.848,1.139a1.522,1.522,0,0,1-1.131,2.827l-3.805-1.522a1.523,1.523,0,0,1-.957-1.413v-3.805A1.522,1.522,0,0,1,360.654,127.827Z" transform="translate(-223.692 -79.89)" fill="#7a08fa" fill-rule="evenodd"/>
  </g>
</svg>
