<svg id="noun-time-6731_2_" data-name="noun-time-6731 (2)" xmlns="http://www.w3.org/2000/svg" width="22.622" height="22.886" viewBox="0 0 22.622 22.886">
  <path id="Path_17" data-name="Path 17" d="M59.089.005A.606.606,0,0,0,59.02,0,1.094,1.094,0,0,0,58,1.194c0,.649.23,1.178,1.136,1.192h0c4.3.065,8.058,4.089,8.058,9.03,0,4.98-3.73,9.085-8.273,9.085-4.336,0-7.934-3.586-8.252-8.3h1.914L49.634,6.819,46.683,12.2h1.809c.32,5.952,4.86,10.684,10.4,10.684,5.744,0,10.417-5.148,10.417-11.446C69.305,5.216,64.74.115,59.089,0Z" transform="translate(-46.683 0)" fill="#d5d5d5"/>
  <path id="Path_18" data-name="Path 18" d="M275.713,111.665a1,1,0,0,0-.925-1.044h-.2a.991.991,0,0,0-.914,1.044v6l-2.682,2.935a1.211,1.211,0,0,0,0,1.57.944.944,0,0,0,1.43,0l2.964-3.249c.023-.027.04-.055.063-.079a1.073,1.073,0,0,0,.262-.712v-6.467Z" transform="translate(-262.352 -106.099)" fill="#d5d5d5"/>
</svg>
