<svg xmlns="http://www.w3.org/2000/svg" width="33.177" height="33.177" viewBox="0 0 33.177 33.177">
  <g id="noun-video-4909216" transform="translate(-105 -35)">
    <path id="Path_12" data-name="Path 12" d="M138.173,38.95a3.955,3.955,0,0,0-3.95-3.95H108.945A3.955,3.955,0,0,0,105,38.95V64.228a3.955,3.955,0,0,0,3.95,3.95h25.278a3.955,3.955,0,0,0,3.95-3.95ZM127.759,53.6l-7.337,4.582a.792.792,0,0,1-.84-1.343l7.337-4.582h0a.79.79,0,0,0,0-1.343l-8.08-5.041a.79.79,0,0,0-1.209.67v10.1a.79.79,0,1,1-1.581,0V46.54a2.37,2.37,0,0,1,3.626-2.009l8.077,5.049a2.37,2.37,0,0,1,0,4.019Z" fill="#7a08fa"/>
  </g>
</svg>
