<svg xmlns="http://www.w3.org/2000/svg" width="28.303" height="33.137" viewBox="0 0 28.303 33.137">
  <g id="book-svgrepo-com_3_" data-name="book-svgrepo-com (3)" transform="translate(-35.7)" opacity="0.32">
    <g id="Group_22" data-name="Group 22" transform="translate(35.7)">
      <path id="Path_17" data-name="Path 17" d="M64,1.381A1.387,1.387,0,0,0,62.621,0H41.015A5.263,5.263,0,0,0,35.7,5.248V28.926a4.24,4.24,0,0,0,4.279,4.212H62.554a1.417,1.417,0,0,0,1.314-.9,1.277,1.277,0,0,0-.413-1.517,1.956,1.956,0,0,1-.21-3.243,1.861,1.861,0,0,0,.711-1.381C63.989,25.987,64,1.381,64,1.381ZM38.463,28.926a1.475,1.475,0,0,1,1.517-1.449H59.866a2.757,2.757,0,0,0,0,2.9H39.979A1.47,1.47,0,0,1,38.463,28.926Zm22.784-4.212H39.986A4.193,4.193,0,0,0,38.469,25V5.248a2.532,2.532,0,0,1,2.553-2.485H61.254V24.714Z" transform="translate(-35.7)" fill="#404040"/>
    </g>
  </g>
</svg>
