<svg xmlns="http://www.w3.org/2000/svg" width="30.303" height="30.308" viewBox="0 0 30.303 30.308">
  <g id="Iconly_Curved_Game" data-name="Iconly/Curved/Game" transform="translate(1 1.009)" opacity="0.32">
    <g id="Game">
      <path id="Stroke_1" data-name="Stroke 1" d="M9.255,12.063v5.3" transform="translate(0.436 2.531)" fill="none" stroke="#404040" stroke-linecap="round" stroke-linejoin="round" stroke-width="2"/>
      <path id="Stroke_2" data-name="Stroke 2" d="M12.838,13.85H7.431" transform="translate(-0.443 3.393)" fill="none" stroke="#404040" stroke-linecap="round" stroke-linejoin="round" stroke-width="2"/>
      <path id="Stroke_3" data-name="Stroke 3" d="M15.527,12.171h-.151" transform="translate(3.387 2.584)" fill="none" stroke="#404040" stroke-linecap="round" stroke-linejoin="round" stroke-width="2"/>
      <path id="Stroke_4" data-name="Stroke 4" d="M17.257,15.583h-.151" transform="translate(4.222 4.229)" fill="none" stroke="#404040" stroke-linecap="round" stroke-linejoin="round" stroke-width="2"/>
      <path id="Stroke_5" data-name="Stroke 5" d="M8.514,2.216h0a1.917,1.917,0,0,0,1.936,1.9h1.494a2.972,2.972,0,0,1,2.994,2.932V8.538" transform="translate(0.079 -2.216)" fill="none" stroke="#404040" stroke-linecap="round" stroke-linejoin="round" stroke-width="2"/>
      <path id="Stroke_7" data-name="Stroke 7" d="M31.019,17.47c0-8.241-3.537-10.988-14.151-10.988S2.716,9.229,2.716,17.47,6.253,28.458,16.868,28.458,31.019,25.712,31.019,17.47Z" transform="translate(-2.716 -0.16)" fill="none" stroke="#404040" stroke-linecap="round" stroke-linejoin="round" stroke-width="2" fill-rule="evenodd"/>
    </g>
  </g>
</svg>
