<svg xmlns="http://www.w3.org/2000/svg" width="34.39" height="30.14" viewBox="0 0 34.39 30.14">
  <g id="noun-like-1076193" transform="translate(0.019)">
    <path id="Path_29" data-name="Path 29" d="M182.263,110.157a11.4,11.4,0,0,0-7.845,3.277l-.05.05a.049.049,0,0,1-.05-.05c-1.936-1.837-4.518-3.674-7.051-3.674a10.055,10.055,0,0,0-7.1,17.18l13.406,12.612a1.41,1.41,0,0,0,.844.348,1.163,1.163,0,0,0,.844-.348l13.406-12.612a10.069,10.069,0,0,0,0-14.2,9.356,9.356,0,0,0-6.4-2.582Zm4.915,15.392-12.86,12.115-12.86-12.115a8.032,8.032,0,0,1-2.334-5.71,8.118,8.118,0,0,1,2.334-5.71,7.913,7.913,0,0,1,5.71-2.334c1.539,0,3.525,1.092,5.66,3.128a2.21,2.21,0,0,0,1.44.6,1.987,1.987,0,0,0,1.44-.6,9.392,9.392,0,0,1,6.5-2.731,6.824,6.824,0,0,1,4.916,1.986,8.154,8.154,0,0,1,.05,11.37Z" transform="translate(-157.226 -109.76)" fill="#b7b7b7"/>
  </g>
</svg>
