<svg xmlns="http://www.w3.org/2000/svg" width="34.581" height="33.137" viewBox="0 0 34.581 33.137">
  <g id="sport-svgrepo-com" transform="translate(-0.001 -4.003)" opacity="0.32">
    <path id="Path_18" data-name="Path 18" d="M109.124,13.829a4.913,4.913,0,1,0-4.913-4.913A4.918,4.918,0,0,0,109.124,13.829Zm0-7.3a2.388,2.388,0,1,1-2.388,2.388A2.39,2.39,0,0,1,109.124,6.528Z" transform="translate(-85.415)" fill="#404040"/>
    <path id="Path_19" data-name="Path 19" d="M57.742,56.66a1.262,1.262,0,0,0-1.785-.013c-.029.029-3.394,2.71-13.408-1.57-4.331-1.851-7.814-2.026-10.351-.519a7.817,7.817,0,0,0-3.492,5.606,1.26,1.26,0,0,0,1.13,1.373,1.262,1.262,0,0,0,1.383-1.125,5.319,5.319,0,0,1,2.287-3.694c1.78-1.044,4.565-.808,8.05.681,4.731,2.022,8.212,2.647,10.708,2.647,3.669,0,5.212-1.351,5.464-1.6A1.262,1.262,0,0,0,57.742,56.66Z" transform="translate(-23.524 -40.606)" fill="#404040"/>
    <path id="Path_20" data-name="Path 20" d="M18.174,90.485a1.262,1.262,0,0,0-1.782-.042c-6.038,5.739-15.241,14.456-15.9,15a1.263,1.263,0,0,0,1.53,2.009C2.6,107.021,12.845,97.3,17.22,93.14L23.3,99.5a.655.655,0,0,1-.473,1.108H14.5a1.263,1.263,0,1,0,0,2.525h8.329a3.18,3.18,0,0,0,2.3-5.378Z" transform="translate(0 -70.565)" fill="#404040"/>
  </g>
</svg>
