<svg xmlns="http://www.w3.org/2000/svg" width="38.667" height="31.769" viewBox="0 0 38.667 31.769">
  <g id="stats-svgrepo-com" transform="translate(-6.178 -43.707)" opacity="0.32">
    <rect id="Rectangle_11" data-name="Rectangle 11" width="2.417" height="5.702" transform="translate(23.095 57.782)" fill="#404040"/>
    <rect id="Rectangle_12" data-name="Rectangle 12" width="2.417" height="8.598" transform="translate(19.782 54.887)" fill="#404040"/>
    <rect id="Rectangle_13" data-name="Rectangle 13" width="2.417" height="11.493" transform="translate(16.468 51.991)" fill="#404040"/>
    <rect id="Rectangle_14" data-name="Rectangle 14" width="2.417" height="14.389" transform="translate(13.155 49.095)" fill="#404040"/>
    <path id="Path_22" data-name="Path 22" d="M36.854,43.707H1.813A1.818,1.818,0,0,0,0,45.52V67.068a1.818,1.818,0,0,0,1.813,1.813h14.5v4.178H10.8v2.417H27.867V73.059H22.354V68.881h14.5a1.818,1.818,0,0,0,1.813-1.813V45.52A1.818,1.818,0,0,0,36.854,43.707Zm-.6,22.757H2.417V46.124H36.25Z" transform="translate(6.178)" fill="#404040"/>
  </g>
</svg>
