<svg xmlns="http://www.w3.org/2000/svg" width="30.303" height="31.131" viewBox="0 0 30.303 31.131">
  <path id="technology-svgrepo-com" d="M24.227,28.158A3.931,3.931,0,1,0,20.3,24.227,3.931,3.931,0,0,0,24.227,28.158ZM14.007,6.145,17.151,3M10.076,14.007a3.931,3.931,0,1,0-3.931-3.931A3.931,3.931,0,0,0,10.076,14.007Zm.786,9.434L23.441,10.862M6.931,31.3A3.931,3.931,0,1,0,3,27.372,3.931,3.931,0,0,0,6.931,31.3ZM27.372,10.862a3.931,3.931,0,1,0-3.931-3.931A3.931,3.931,0,0,0,27.372,10.862ZM17.151,31.3,20.3,28.158" transform="translate(-2 -1.586)" fill="none" stroke="#404040" stroke-linecap="round" stroke-linejoin="round" stroke-width="2" opacity="0.32"/>
</svg>
